<?xml version="1.0" encoding="utf-8"?>
<!-- Generator: Adobe Illustrator 25.2.1, SVG Export Plug-In . SVG Version: 6.00 Build 0)  -->
<svg version="1.1" id="Capa_1" xmlns="http://www.w3.org/2000/svg" xmlns:xlink="http://www.w3.org/1999/xlink" x="0px" y="0px"
	 viewBox="0 0 31.88 32" style="enable-background:new 0 0 31.88 32;" xml:space="preserve">
<style type="text/css">
	.st0{fill:#1D1D1B;}
	.st1{font-family:'Lovelo-LineBold';}
	.st2{font-size:16.7722px;}
	.st3{display:none;}
	.st4{display:inline;}
	.st5{enable-background:new    ;}
</style>
<text transform="matrix(0.931 0 0 1 -0.771 21.8486)" class="st0 st1 st2">MKT</text>
<g id="texto" class="st3">
	<g class="st4">
		<g class="st5">
			<path d="M1.08,23.17c-0.04,0-0.08-0.01-0.11-0.04s-0.04-0.06-0.04-0.11s0.01-0.08,0.04-0.11c0.03-0.03,0.06-0.04,0.11-0.04h0.43
				c0.04,0,0.08,0.01,0.11,0.04c0.03,0.03,0.04,0.07,0.04,0.11c0,0.04-0.01,0.08-0.04,0.1c-0.03,0.03-0.06,0.04-0.11,0.04H1.08z"/>
			<path d="M3.44,22.43l-0.53,1.28c-0.01,0.03-0.03,0.06-0.05,0.07s-0.05,0.03-0.08,0.03c-0.04,0-0.08-0.01-0.1-0.04
				c-0.02-0.03-0.03-0.06-0.03-0.09c0-0.02,0-0.03,0.01-0.05l0.62-1.51c0.01-0.03,0.03-0.06,0.06-0.08s0.06-0.03,0.09-0.02
				c0.03,0,0.06,0.01,0.08,0.03s0.04,0.04,0.06,0.07l0.61,1.48c0.01,0.02,0.01,0.04,0.01,0.06c0,0.04-0.01,0.08-0.04,0.11
				c-0.03,0.03-0.06,0.04-0.1,0.04c-0.03,0-0.06-0.01-0.08-0.03c-0.02-0.02-0.04-0.04-0.06-0.08l-0.53-1.26L3.44,22.43z M2.99,23.4
				l0.14-0.29h0.67l0.05,0.29H2.99z"/>
			<path d="M6.04,23.82c-0.13,0-0.24-0.02-0.35-0.07c-0.11-0.05-0.2-0.11-0.29-0.2c-0.08-0.08-0.15-0.18-0.19-0.29
				s-0.07-0.23-0.07-0.35s0.02-0.24,0.07-0.35c0.05-0.11,0.11-0.21,0.19-0.29s0.18-0.15,0.29-0.2C5.8,22.03,5.92,22,6.04,22
				c0.08,0,0.15,0.01,0.22,0.03c0.07,0.02,0.14,0.04,0.2,0.08c0.02,0.01,0.04,0.03,0.06,0.05s0.02,0.05,0.02,0.07
				c0,0.04-0.01,0.08-0.04,0.11c-0.03,0.03-0.06,0.05-0.1,0.05c-0.01,0-0.03,0-0.04,0c-0.01,0-0.03-0.01-0.04-0.01
				c-0.04-0.02-0.08-0.03-0.13-0.04c-0.05-0.01-0.09-0.02-0.15-0.02c-0.11,0-0.21,0.03-0.29,0.08c-0.09,0.05-0.16,0.13-0.21,0.22
				c-0.05,0.09-0.08,0.19-0.08,0.3c0,0.11,0.03,0.21,0.08,0.3c0.05,0.09,0.12,0.17,0.21,0.22c0.09,0.05,0.19,0.08,0.29,0.08
				c0.05,0,0.1,0,0.16-0.02c0.06-0.01,0.11-0.02,0.15-0.04l-0.02,0.08v-0.43l0.04,0.04H6.1c-0.04,0-0.08-0.01-0.11-0.04
				s-0.04-0.07-0.04-0.11c0-0.04,0.01-0.08,0.04-0.11c0.03-0.03,0.06-0.04,0.11-0.04H6.5c0.04,0,0.08,0.01,0.11,0.04
				c0.03,0.03,0.04,0.07,0.04,0.11v0.54c0,0.03-0.01,0.06-0.02,0.08c-0.02,0.02-0.03,0.04-0.05,0.05c-0.08,0.05-0.16,0.08-0.25,0.11
				C6.23,23.81,6.14,23.82,6.04,23.82z"/>
			<path d="M7.94,22.03h0.83c0.04,0,0.08,0.01,0.11,0.04c0.03,0.03,0.04,0.06,0.04,0.11s-0.01,0.08-0.04,0.1
				c-0.03,0.03-0.06,0.04-0.11,0.04H8.07l0.02-0.04v0.49l-0.02-0.02h0.58c0.04,0,0.08,0.01,0.11,0.04c0.03,0.03,0.04,0.06,0.04,0.11
				c0,0.04-0.01,0.08-0.04,0.1c-0.03,0.03-0.06,0.04-0.11,0.04H8.08l0.01-0.02v0.51L8.08,23.5h0.69c0.04,0,0.08,0.01,0.11,0.04
				c0.03,0.03,0.04,0.06,0.04,0.1c0,0.04-0.01,0.08-0.04,0.1c-0.03,0.03-0.06,0.04-0.11,0.04H7.94c-0.04,0-0.08-0.01-0.11-0.04
				s-0.04-0.07-0.04-0.11v-1.46c0-0.04,0.01-0.08,0.04-0.11S7.9,22.03,7.94,22.03z"/>
			<path d="M11.35,22.03c0.04,0,0.07,0.01,0.1,0.04c0.02,0.03,0.04,0.06,0.04,0.1v1.47c0,0.04-0.01,0.08-0.04,0.11
				c-0.03,0.03-0.06,0.04-0.11,0.04c-0.02,0-0.04,0-0.07-0.01c-0.02-0.01-0.04-0.02-0.05-0.03l-0.97-1.26l0.06-0.04v1.2
				c0,0.04-0.01,0.07-0.04,0.1c-0.03,0.03-0.06,0.04-0.1,0.04c-0.04,0-0.07-0.01-0.1-0.04c-0.03-0.03-0.04-0.06-0.04-0.1v-1.47
				c0-0.04,0.01-0.08,0.04-0.11c0.03-0.03,0.06-0.04,0.11-0.04c0.02,0,0.05,0,0.07,0.01c0.02,0.01,0.04,0.02,0.05,0.04l0.94,1.23
				l-0.04,0.03v-1.17c0-0.04,0.01-0.07,0.04-0.1C11.28,22.04,11.31,22.03,11.35,22.03z"/>
			<path d="M13.91,22.12c0.04,0.02,0.07,0.06,0.08,0.1c0.01,0.05,0,0.09-0.04,0.13c-0.02,0.03-0.05,0.05-0.08,0.05
				c-0.03,0-0.07,0-0.1-0.02c-0.04-0.02-0.08-0.03-0.12-0.04c-0.04-0.01-0.09-0.02-0.14-0.02c-0.09,0-0.17,0.01-0.24,0.04
				s-0.13,0.07-0.18,0.12c-0.05,0.05-0.09,0.12-0.11,0.19c-0.03,0.07-0.04,0.15-0.04,0.24c0,0.1,0.01,0.19,0.04,0.27
				c0.03,0.08,0.07,0.14,0.12,0.19c0.05,0.05,0.11,0.09,0.18,0.11c0.07,0.02,0.14,0.04,0.22,0.04c0.04,0,0.09,0,0.13-0.01
				c0.04-0.01,0.09-0.02,0.13-0.04c0.04-0.02,0.07-0.02,0.1-0.02c0.03,0.01,0.06,0.02,0.09,0.05c0.03,0.04,0.04,0.08,0.04,0.13
				c-0.01,0.04-0.03,0.08-0.08,0.1c-0.04,0.02-0.09,0.04-0.13,0.05c-0.05,0.01-0.09,0.02-0.14,0.03c-0.05,0.01-0.09,0.01-0.14,0.01
				c-0.12,0-0.23-0.02-0.34-0.06c-0.11-0.04-0.2-0.1-0.28-0.17c-0.08-0.08-0.15-0.17-0.2-0.28s-0.07-0.25-0.07-0.39
				c0-0.13,0.02-0.25,0.07-0.36c0.04-0.11,0.11-0.2,0.19-0.28s0.17-0.14,0.28-0.19c0.11-0.04,0.23-0.07,0.36-0.07
				c0.07,0,0.14,0.01,0.21,0.03S13.85,22.08,13.91,22.12z"/>
			<path d="M15.4,23.64c0,0.04-0.02,0.08-0.05,0.11s-0.07,0.04-0.11,0.04c-0.05,0-0.08-0.01-0.11-0.04
				c-0.03-0.03-0.04-0.07-0.04-0.11v-1.46c0-0.04,0.01-0.08,0.04-0.11c0.03-0.03,0.07-0.04,0.11-0.04c0.04,0,0.07,0.01,0.1,0.04
				s0.05,0.07,0.05,0.11V23.64z"/>
			<path d="M17.24,22.43l-0.53,1.28c-0.01,0.03-0.03,0.06-0.05,0.07c-0.02,0.02-0.05,0.03-0.08,0.03c-0.04,0-0.08-0.01-0.1-0.04
				s-0.03-0.06-0.03-0.09c0-0.02,0-0.03,0.01-0.05l0.62-1.51c0.01-0.03,0.03-0.06,0.06-0.08s0.06-0.03,0.09-0.02
				c0.03,0,0.06,0.01,0.08,0.03c0.03,0.02,0.04,0.04,0.06,0.07l0.61,1.48c0.01,0.02,0.01,0.04,0.01,0.06c0,0.04-0.01,0.08-0.04,0.11
				c-0.03,0.03-0.06,0.04-0.09,0.04c-0.03,0-0.06-0.01-0.08-0.03c-0.02-0.02-0.04-0.04-0.06-0.08l-0.53-1.26L17.24,22.43z
				 M16.78,23.4l0.14-0.29h0.67l0.05,0.29H16.78z"/>
			<path d="M21.3,22.03c0.12,0,0.22,0.02,0.32,0.07c0.09,0.04,0.17,0.11,0.23,0.19c0.06,0.08,0.11,0.18,0.14,0.28
				s0.05,0.22,0.05,0.34c0,0.16-0.03,0.31-0.09,0.45c-0.06,0.13-0.14,0.24-0.25,0.32c-0.11,0.08-0.24,0.12-0.4,0.12h-0.59
				c-0.04,0-0.08-0.01-0.11-0.04c-0.03-0.03-0.04-0.07-0.04-0.11v-1.46c0-0.04,0.01-0.08,0.04-0.11c0.03-0.03,0.06-0.04,0.11-0.04
				H21.3z M21.28,23.5c0.1,0,0.19-0.03,0.25-0.08c0.07-0.05,0.11-0.13,0.14-0.22s0.05-0.19,0.05-0.29c0-0.08-0.01-0.15-0.03-0.23
				c-0.02-0.07-0.04-0.13-0.08-0.19s-0.08-0.1-0.14-0.13c-0.06-0.03-0.12-0.05-0.2-0.05h-0.43l0.02-0.02v1.24l-0.01-0.03H21.28z"/>
			<path d="M23.47,23.64c0,0.04-0.02,0.08-0.05,0.11s-0.07,0.04-0.11,0.04c-0.05,0-0.08-0.01-0.11-0.04
				c-0.03-0.03-0.04-0.07-0.04-0.11v-1.46c0-0.04,0.01-0.08,0.04-0.11c0.03-0.03,0.07-0.04,0.11-0.04c0.04,0,0.07,0.01,0.1,0.04
				s0.05,0.07,0.05,0.11V23.64z"/>
			<path d="M25.5,23.82c-0.12,0-0.24-0.02-0.35-0.07c-0.11-0.05-0.21-0.11-0.29-0.2c-0.08-0.08-0.15-0.18-0.19-0.29
				s-0.07-0.23-0.07-0.35s0.02-0.24,0.07-0.35c0.05-0.11,0.11-0.21,0.19-0.29s0.18-0.15,0.29-0.2C25.26,22.03,25.38,22,25.5,22
				c0.08,0,0.15,0.01,0.22,0.03s0.14,0.04,0.2,0.08c0.02,0.01,0.04,0.03,0.06,0.05S26,22.21,26,22.23c0,0.04-0.01,0.08-0.04,0.11
				c-0.03,0.03-0.06,0.05-0.1,0.05c-0.01,0-0.03,0-0.04,0c-0.01,0-0.03-0.01-0.04-0.01c-0.04-0.02-0.08-0.03-0.13-0.04
				c-0.05-0.01-0.09-0.02-0.15-0.02c-0.11,0-0.21,0.03-0.29,0.08s-0.16,0.13-0.21,0.22s-0.08,0.19-0.08,0.3
				c0,0.11,0.03,0.21,0.08,0.3s0.12,0.17,0.21,0.22s0.19,0.08,0.29,0.08c0.05,0,0.1,0,0.16-0.02c0.06-0.01,0.11-0.02,0.15-0.04
				l-0.02,0.08v-0.43l0.04,0.04h-0.27c-0.04,0-0.08-0.01-0.11-0.04c-0.03-0.03-0.04-0.07-0.04-0.11c0-0.04,0.01-0.08,0.04-0.11
				c0.03-0.03,0.07-0.04,0.11-0.04h0.41c0.04,0,0.08,0.01,0.11,0.04c0.03,0.03,0.04,0.07,0.04,0.11v0.54c0,0.03-0.01,0.06-0.02,0.08
				s-0.03,0.04-0.05,0.05c-0.08,0.05-0.16,0.08-0.25,0.11C25.69,23.81,25.6,23.82,25.5,23.82z"/>
			<path d="M27.55,23.64c0,0.04-0.02,0.08-0.05,0.11s-0.07,0.04-0.11,0.04c-0.05,0-0.08-0.01-0.11-0.04
				c-0.03-0.03-0.04-0.07-0.04-0.11v-1.46c0-0.04,0.01-0.08,0.04-0.11c0.03-0.03,0.07-0.04,0.11-0.04c0.04,0,0.07,0.01,0.1,0.04
				s0.05,0.07,0.05,0.11V23.64z"/>
			<path d="M28.8,22.32c-0.04,0-0.08-0.01-0.11-0.04c-0.03-0.03-0.04-0.06-0.04-0.11c0-0.04,0.01-0.08,0.04-0.1
				c0.03-0.03,0.06-0.04,0.11-0.04h1.1c0.04,0,0.08,0.01,0.11,0.04c0.03,0.03,0.04,0.06,0.04,0.11s-0.01,0.08-0.04,0.1
				c-0.03,0.03-0.06,0.04-0.11,0.04H28.8z M29.35,23.79c-0.05,0-0.08-0.01-0.11-0.04s-0.04-0.07-0.04-0.11v-1.46h0.32v1.46
				c0,0.04-0.02,0.08-0.05,0.11C29.44,23.78,29.4,23.79,29.35,23.79z"/>
			<path d="M31.79,22.43l-0.53,1.28c-0.01,0.03-0.03,0.06-0.05,0.07c-0.02,0.02-0.05,0.03-0.08,0.03c-0.04,0-0.08-0.01-0.1-0.04
				s-0.03-0.06-0.03-0.09c0-0.02,0-0.03,0.01-0.05l0.62-1.51c0.01-0.03,0.03-0.06,0.06-0.08s0.06-0.03,0.09-0.02
				c0.03,0,0.06,0.01,0.08,0.03c0.03,0.02,0.04,0.04,0.06,0.07l0.61,1.48c0.01,0.02,0.01,0.04,0.01,0.06c0,0.04-0.01,0.08-0.04,0.11
				c-0.03,0.03-0.06,0.04-0.09,0.04c-0.03,0-0.06-0.01-0.08-0.03c-0.02-0.02-0.04-0.04-0.06-0.08l-0.53-1.26L31.79,22.43z
				 M31.33,23.4l0.14-0.29h0.67l0.05,0.29H31.33z"/>
			<path d="M34.53,23.5c0.04,0,0.08,0.01,0.11,0.04c0.03,0.03,0.04,0.06,0.04,0.11c0,0.04-0.01,0.08-0.04,0.1
				c-0.03,0.03-0.07,0.04-0.11,0.04h-0.8c-0.04,0-0.08-0.01-0.11-0.04c-0.03-0.03-0.04-0.07-0.04-0.11v-1.46
				c0-0.04,0.01-0.08,0.04-0.11c0.03-0.03,0.07-0.04,0.11-0.04c0.04,0,0.07,0.01,0.1,0.04s0.05,0.07,0.05,0.11v1.36l-0.05-0.04
				H34.53z"/>
			<path d="M35.89,23.17c-0.04,0-0.08-0.01-0.11-0.04c-0.03-0.03-0.04-0.06-0.04-0.11s0.01-0.08,0.04-0.11
				c0.03-0.03,0.06-0.04,0.11-0.04h0.43c0.04,0,0.08,0.01,0.11,0.04c0.03,0.03,0.04,0.07,0.04,0.11c0,0.04-0.01,0.08-0.04,0.1
				c-0.03,0.03-0.06,0.04-0.11,0.04H35.89z"/>
		</g>
	</g>
</g>
</svg>
