<?xml version="1.0" encoding="utf-8"?>
<!-- Generator: Adobe Illustrator 25.2.1, SVG Export Plug-In . SVG Version: 6.00 Build 0)  -->
<svg version="1.1" id="Capa_1" xmlns="http://www.w3.org/2000/svg" xmlns:xlink="http://www.w3.org/1999/xlink" x="0px" y="0px"
	 viewBox="0 0 192 192" style="enable-background:new 0 0 192 192;" xml:space="preserve">
<style type="text/css">
	.st0{fill:#FFFFFF;}
	.st1{font-family:'Lovelo-Black';}
	.st2{font-size:83.1443px;}
	.st3{display:none;}
	.st4{display:inline;}
	.st5{enable-background:new    ;}
	.st6{fill:#020203;}
</style>
<text transform="matrix(1.022 0 0 1 5.793 126.7764)" class="st0 st1 st2">MKT</text>
<g id="texto" class="st3">
	<g class="st4">
		<g class="st5">
			<path class="st6" d="M13.86,131c-0.2,0-0.37-0.07-0.51-0.21s-0.21-0.33-0.21-0.55s0.07-0.4,0.21-0.54s0.31-0.21,0.51-0.21h2.04
				c0.2,0,0.37,0.07,0.51,0.22s0.21,0.33,0.21,0.55c0,0.21-0.07,0.39-0.21,0.53S16.11,131,15.9,131H13.86z"/>
			<path class="st6" d="M25.08,127.24l-2.53,6.44c-0.06,0.16-0.14,0.29-0.25,0.38c-0.11,0.09-0.24,0.13-0.37,0.13
				c-0.21,0-0.37-0.06-0.47-0.19s-0.15-0.28-0.15-0.47c0-0.08,0.01-0.16,0.04-0.24l2.92-7.58c0.06-0.17,0.16-0.3,0.29-0.39
				c0.13-0.09,0.27-0.13,0.42-0.11c0.14,0,0.27,0.04,0.39,0.13c0.12,0.09,0.21,0.21,0.26,0.37l2.88,7.43
				c0.04,0.11,0.06,0.21,0.06,0.3c0,0.23-0.07,0.41-0.21,0.54c-0.14,0.14-0.29,0.2-0.45,0.2c-0.14,0-0.27-0.05-0.38-0.14
				s-0.2-0.22-0.26-0.38l-2.52-6.35L25.08,127.24z M22.92,132.14l0.65-1.46h3.17l0.22,1.46H22.92z"/>
			<path class="st6" d="M37.42,134.26c-0.59,0-1.15-0.12-1.66-0.36c-0.52-0.24-0.97-0.56-1.36-0.98s-0.7-0.9-0.92-1.45
				s-0.33-1.14-0.33-1.78c0-0.63,0.11-1.23,0.33-1.78s0.53-1.03,0.92-1.45s0.84-0.75,1.36-0.98c0.52-0.24,1.07-0.35,1.66-0.35
				c0.37,0,0.72,0.04,1.07,0.13c0.35,0.08,0.66,0.21,0.95,0.38c0.12,0.07,0.21,0.16,0.26,0.27s0.09,0.23,0.09,0.35
				c0,0.2-0.06,0.39-0.19,0.55s-0.29,0.24-0.48,0.24c-0.06,0-0.13-0.01-0.19-0.03c-0.07-0.02-0.13-0.04-0.19-0.08
				c-0.2-0.09-0.4-0.17-0.62-0.22s-0.45-0.08-0.69-0.08c-0.51,0-0.97,0.14-1.39,0.41c-0.42,0.28-0.75,0.64-1,1.1
				c-0.25,0.46-0.37,0.97-0.37,1.53c0,0.55,0.12,1.06,0.37,1.52s0.58,0.83,1,1.11s0.88,0.41,1.39,0.41c0.23,0,0.49-0.03,0.77-0.08
				s0.51-0.12,0.69-0.2l-0.11,0.38v-2.17l0.2,0.19h-1.3c-0.2,0-0.37-0.07-0.51-0.22s-0.21-0.33-0.21-0.55s0.07-0.4,0.21-0.54
				s0.31-0.22,0.51-0.22h1.92c0.2,0,0.37,0.07,0.5,0.22s0.2,0.33,0.2,0.55v2.69c0,0.17-0.04,0.31-0.11,0.42s-0.16,0.2-0.25,0.27
				c-0.36,0.24-0.75,0.42-1.18,0.56C38.34,134.19,37.89,134.26,37.42,134.26z"/>
			<path class="st6" d="M46.41,125.25h3.93c0.2,0,0.37,0.07,0.51,0.21s0.21,0.32,0.21,0.54c0,0.21-0.07,0.38-0.21,0.51
				s-0.31,0.2-0.51,0.2h-3.28l0.11-0.22v2.47l-0.09-0.1h2.74c0.2,0,0.37,0.07,0.51,0.21s0.21,0.32,0.21,0.54
				c0,0.21-0.07,0.38-0.21,0.51s-0.31,0.2-0.51,0.2H47.1l0.06-0.1v2.56l-0.09-0.11h3.27c0.2,0,0.37,0.07,0.51,0.22
				s0.21,0.32,0.21,0.51c0,0.21-0.07,0.38-0.21,0.52s-0.31,0.2-0.51,0.2h-3.93c-0.2,0-0.37-0.07-0.51-0.22s-0.21-0.33-0.21-0.55
				v-7.33c0-0.22,0.07-0.4,0.21-0.55C46.04,125.33,46.21,125.25,46.41,125.25z"/>
			<path class="st6" d="M62.62,125.25c0.19,0,0.34,0.07,0.46,0.2c0.12,0.14,0.18,0.3,0.18,0.51v7.39c0,0.22-0.07,0.4-0.21,0.55
				c-0.14,0.15-0.31,0.22-0.51,0.22c-0.1,0-0.21-0.02-0.31-0.06s-0.19-0.09-0.24-0.16l-4.61-6.33l0.3-0.2v6.04
				c0,0.2-0.06,0.37-0.18,0.51s-0.28,0.2-0.47,0.2c-0.19,0-0.34-0.07-0.46-0.2c-0.12-0.13-0.18-0.3-0.18-0.51v-7.39
				c0-0.22,0.07-0.4,0.21-0.55s0.31-0.22,0.51-0.22c0.11,0,0.22,0.02,0.34,0.07s0.2,0.12,0.26,0.21l4.47,6.16l-0.2,0.15v-5.88
				c0-0.2,0.06-0.37,0.18-0.51C62.27,125.32,62.42,125.25,62.62,125.25z"/>
			<path class="st6" d="M74.74,125.68c0.2,0.11,0.32,0.28,0.36,0.52s-0.02,0.45-0.17,0.65c-0.1,0.15-0.23,0.24-0.39,0.25
				c-0.16,0.02-0.32-0.02-0.49-0.1c-0.19-0.09-0.38-0.17-0.59-0.22s-0.42-0.08-0.65-0.08c-0.42,0-0.8,0.07-1.13,0.22
				s-0.62,0.35-0.85,0.62c-0.24,0.27-0.41,0.58-0.53,0.94s-0.18,0.77-0.18,1.21c0,0.52,0.07,0.96,0.21,1.34
				c0.14,0.38,0.33,0.7,0.57,0.95s0.53,0.44,0.86,0.56s0.68,0.18,1.07,0.18c0.21,0,0.42-0.02,0.63-0.06s0.41-0.12,0.61-0.23
				c0.17-0.08,0.33-0.11,0.49-0.09s0.29,0.11,0.4,0.27c0.16,0.21,0.21,0.43,0.17,0.65s-0.16,0.39-0.36,0.49
				c-0.2,0.11-0.41,0.2-0.63,0.27c-0.21,0.07-0.43,0.13-0.65,0.16s-0.44,0.06-0.67,0.06c-0.56,0-1.1-0.1-1.6-0.29
				c-0.5-0.19-0.95-0.48-1.35-0.86c-0.39-0.38-0.71-0.86-0.93-1.43c-0.23-0.57-0.34-1.23-0.34-1.98c0-0.65,0.1-1.25,0.31-1.8
				s0.5-1.03,0.88-1.43s0.83-0.71,1.34-0.94c0.52-0.22,1.08-0.34,1.69-0.34c0.34,0,0.68,0.04,1.01,0.13
				C74.14,125.4,74.45,125.52,74.74,125.68z"/>
			<path class="st6" d="M81.8,133.36c0,0.22-0.07,0.4-0.22,0.55c-0.15,0.15-0.32,0.22-0.52,0.22c-0.22,0-0.39-0.07-0.53-0.22
				c-0.13-0.15-0.2-0.33-0.2-0.55v-7.33c0-0.22,0.07-0.4,0.21-0.55s0.32-0.22,0.54-0.22c0.19,0,0.35,0.07,0.5,0.22
				c0.14,0.15,0.22,0.33,0.22,0.55C81.8,126.03,81.8,133.36,81.8,133.36z"/>
			<path class="st6" d="M90.56,127.24l-2.53,6.44c-0.05,0.16-0.14,0.29-0.25,0.38c-0.11,0.09-0.24,0.13-0.37,0.13
				c-0.21,0-0.37-0.06-0.47-0.19s-0.15-0.28-0.15-0.47c0-0.08,0.01-0.16,0.04-0.24l2.92-7.58c0.06-0.17,0.16-0.3,0.29-0.39
				s0.27-0.13,0.42-0.11c0.14,0,0.27,0.04,0.39,0.13s0.21,0.21,0.26,0.37l2.88,7.43c0.04,0.11,0.06,0.21,0.06,0.3
				c0,0.23-0.07,0.41-0.21,0.54c-0.14,0.14-0.29,0.2-0.45,0.2c-0.14,0-0.27-0.05-0.38-0.14s-0.2-0.22-0.26-0.38l-2.52-6.35
				L90.56,127.24z M88.39,132.14l0.64-1.46h3.17l0.22,1.46H88.39z"/>
			<path class="st6" d="M109.81,125.25c0.56,0,1.06,0.11,1.5,0.34c0.44,0.23,0.81,0.55,1.11,0.96s0.53,0.88,0.68,1.42
				s0.23,1.11,0.23,1.72c0,0.82-0.14,1.57-0.41,2.24s-0.67,1.21-1.19,1.6c-0.52,0.4-1.16,0.6-1.92,0.6h-2.8
				c-0.2,0-0.37-0.07-0.51-0.22s-0.21-0.33-0.21-0.55v-7.33c0-0.22,0.07-0.4,0.21-0.55s0.31-0.22,0.51-0.22L109.81,125.25
				L109.81,125.25z M109.69,132.67c0.49,0,0.9-0.14,1.21-0.41c0.31-0.28,0.54-0.64,0.69-1.09c0.14-0.45,0.22-0.95,0.22-1.48
				c0-0.4-0.04-0.78-0.12-1.13s-0.21-0.68-0.38-0.95c-0.17-0.28-0.39-0.49-0.66-0.65c-0.27-0.16-0.58-0.24-0.95-0.24h-2.05
				l0.12-0.11v6.21l-0.07-0.14h1.99V132.67z"/>
			<path class="st6" d="M120.13,133.36c0,0.22-0.07,0.4-0.22,0.55c-0.15,0.15-0.32,0.22-0.52,0.22c-0.22,0-0.39-0.07-0.53-0.22
				c-0.13-0.15-0.2-0.33-0.2-0.55v-7.33c0-0.22,0.07-0.4,0.21-0.55s0.32-0.22,0.54-0.22c0.19,0,0.35,0.07,0.5,0.22
				c0.14,0.15,0.22,0.33,0.22,0.55C120.13,126.03,120.13,133.36,120.13,133.36z"/>
			<path class="st6" d="M129.74,134.26c-0.59,0-1.15-0.12-1.67-0.36c-0.52-0.24-0.97-0.56-1.36-0.98s-0.7-0.9-0.92-1.45
				s-0.33-1.14-0.33-1.78c0-0.63,0.11-1.23,0.33-1.78s0.53-1.03,0.92-1.45s0.84-0.75,1.36-0.98c0.52-0.24,1.07-0.35,1.67-0.35
				c0.37,0,0.72,0.04,1.07,0.13c0.34,0.08,0.66,0.21,0.95,0.38c0.12,0.07,0.21,0.16,0.26,0.27s0.09,0.23,0.09,0.35
				c0,0.2-0.06,0.39-0.19,0.55s-0.29,0.24-0.48,0.24c-0.06,0-0.13-0.01-0.19-0.03c-0.07-0.02-0.13-0.04-0.19-0.08
				c-0.2-0.09-0.4-0.17-0.62-0.22s-0.45-0.08-0.69-0.08c-0.51,0-0.97,0.14-1.39,0.41c-0.42,0.28-0.75,0.64-1,1.1
				c-0.25,0.46-0.37,0.97-0.37,1.53c0,0.55,0.12,1.06,0.37,1.52s0.58,0.83,1,1.11s0.88,0.41,1.39,0.41c0.23,0,0.49-0.03,0.77-0.08
				s0.51-0.12,0.69-0.2l-0.11,0.38v-2.17l0.2,0.19H130c-0.2,0-0.37-0.07-0.51-0.22c-0.14-0.14-0.21-0.33-0.21-0.55
				s0.07-0.4,0.21-0.54s0.31-0.22,0.51-0.22h1.92c0.2,0,0.37,0.07,0.5,0.22s0.2,0.33,0.2,0.55v2.69c0,0.17-0.04,0.31-0.11,0.42
				s-0.16,0.2-0.25,0.27c-0.36,0.24-0.75,0.42-1.18,0.56C130.66,134.19,130.21,134.26,129.74,134.26z"/>
			<path class="st6" d="M139.49,133.36c0,0.22-0.07,0.4-0.22,0.55c-0.15,0.15-0.32,0.22-0.52,0.22c-0.22,0-0.39-0.07-0.53-0.22
				c-0.13-0.15-0.2-0.33-0.2-0.55v-7.33c0-0.22,0.07-0.4,0.21-0.55s0.32-0.22,0.54-0.22c0.19,0,0.35,0.07,0.5,0.22
				c0.14,0.15,0.22,0.33,0.22,0.55V133.36z"/>
			<path class="st6" d="M145.42,126.71c-0.2,0-0.37-0.07-0.51-0.2s-0.21-0.31-0.21-0.53s0.07-0.4,0.21-0.53s0.31-0.2,0.51-0.2h5.21
				c0.2,0,0.37,0.07,0.51,0.2c0.14,0.14,0.21,0.31,0.21,0.53s-0.07,0.4-0.21,0.53s-0.31,0.2-0.51,0.2H145.42z M148.01,134.13
				c-0.22,0-0.4-0.07-0.54-0.22s-0.21-0.33-0.21-0.55V126h1.52v7.36c0,0.22-0.07,0.4-0.22,0.55
				C148.42,134.05,148.24,134.13,148.01,134.13z"/>
			<path class="st6" d="M159.57,127.24l-2.53,6.44c-0.05,0.16-0.14,0.29-0.25,0.38c-0.11,0.09-0.24,0.13-0.37,0.13
				c-0.21,0-0.37-0.06-0.47-0.19s-0.15-0.28-0.15-0.47c0-0.08,0.01-0.16,0.04-0.24l2.92-7.58c0.06-0.17,0.16-0.3,0.29-0.39
				c0.13-0.09,0.27-0.13,0.42-0.11c0.14,0,0.27,0.04,0.39,0.13s0.21,0.21,0.26,0.37l2.88,7.43c0.04,0.11,0.06,0.21,0.06,0.3
				c0,0.23-0.07,0.41-0.21,0.54c-0.14,0.14-0.29,0.2-0.45,0.2c-0.14,0-0.27-0.05-0.38-0.14s-0.2-0.22-0.26-0.38l-2.52-6.35
				L159.57,127.24z M157.4,132.14l0.64-1.46h3.17l0.22,1.46H157.4z"/>
			<path class="st6" d="M172.57,132.65c0.2,0,0.37,0.07,0.51,0.21s0.21,0.32,0.21,0.54c0,0.21-0.07,0.39-0.21,0.53
				s-0.31,0.21-0.51,0.21h-3.81c-0.2,0-0.37-0.07-0.51-0.22s-0.21-0.33-0.21-0.55v-7.33c0-0.22,0.07-0.4,0.21-0.55
				s0.32-0.22,0.54-0.22c0.19,0,0.35,0.07,0.5,0.22c0.14,0.15,0.22,0.33,0.22,0.55v6.83l-0.26-0.21L172.57,132.65L172.57,132.65z"/>
			<path class="st6" d="M179.04,131c-0.2,0-0.37-0.07-0.51-0.21s-0.21-0.33-0.21-0.55s0.07-0.4,0.21-0.54s0.31-0.21,0.51-0.21h2.04
				c0.2,0,0.37,0.07,0.51,0.22s0.21,0.33,0.21,0.55c0,0.21-0.07,0.39-0.21,0.53s-0.31,0.21-0.51,0.21H179.04z"/>
		</g>
	</g>
</g>
</svg>
